<svg width="160" height="160" viewBox="0 0 24 24" xmlns="http://www.w3.org/2000/svg" role="img">
  <title>GitHub</title>
  <!-- White circular background -->
  <circle cx="12" cy="12" r="12" fill="white"></circle>
  <!-- Black GitHub Octocat -->
  <path fill="black" d="M12 0C5.37 0 0 5.37 0 12c0 5.3 3.438 9.8 8.207 11.387.6.113.793-.263.793-.583 
    0-.287-.01-1.05-.015-2.06-3.338.726-4.042-1.61-4.042-1.61
    -.546-1.387-1.333-1.756-1.333-1.756
    -1.09-.745.083-.73.083-.73
    1.205.085 1.84 1.238 1.84 1.238
    1.07 1.835 2.807 1.305 3.492.997
    .108-.775.42-1.305.763-1.605
    -2.665-.3-5.466-1.334-5.466-5.93
    0-1.31.467-2.38 1.235-3.22
    -.124-.303-.535-1.523.117-3.176
    0 0 1.008-.322 3.3 1.23a11.5 11.5 0 0 1 
    3.003-.403c1.02.005 2.045.137 3.003.403
    2.29-1.552 3.296-1.23 3.296-1.23
    .653 1.653.242 2.873.118 3.176
    .77.84 1.233 1.91 1.233 3.22
    0 4.61-2.804 5.625-5.475 5.92
    .43.372.823 1.103.823 2.222
    0 1.606-.014 2.896-.014 3.286
    0 .322.192.698.8.58C20.565 21.796 
    24 17.297 24 12c0-6.63-5.373-12-12-12z"></path>
</svg>
